<svg width="50" height="50" viewBox="0 0 50 50" fill="none" xmlns="http://www.w3.org/2000/svg">
<path fill-rule="evenodd" clip-rule="evenodd" d="M10.7794 24.7474C10 24.4591 9.57293 24.2349 9.57293 23.8826C9.57293 23.5836 9.81851 23.4128 10.2563 23.4128C11.057 23.4128 11.879 23.7225 12.4448 24L12.7651 22.0249C12.3167 21.8114 11.3986 21.4591 10.1281 21.4591C9.23135 21.4591 8.48396 21.6939 7.95021 22.1317C7.39499 22.5907 7.10674 23.2527 7.10674 24.0534C7.10674 25.5053 7.99288 26.1246 9.43417 26.6477C10.363 26.9786 10.6726 27.2136 10.6726 27.5765C10.6726 27.9288 10.3736 28.1317 9.82916 28.1317C9.15656 28.1317 8.04629 27.8007 7.32029 27.3737L7 29.3701C7.61919 29.7224 8.77222 30.0854 9.968 30.0854C10.9181 30.0854 11.7082 29.8612 12.242 29.4342C12.8398 28.9644 13.1495 28.2705 13.1495 27.3737C13.1495 25.8897 12.242 25.2705 10.7794 24.7474ZM18.3635 23.5836L18.6838 21.6192H16.9929V19.2345L14.7195 19.6086L14.3912 21.6192L13.5916 21.7489L13.2923 23.5836H14.3879V27.4378C14.3879 28.4413 14.6442 29.1353 15.1673 29.5623C15.605 29.9146 16.2349 30.0854 17.121 30.0854C17.8043 30.0854 18.2206 29.968 18.5089 29.8932V27.8114C18.3487 27.8541 17.9858 27.9288 17.7402 27.9288C17.2171 27.9288 16.9929 27.662 16.9929 27.0534V23.5836H18.3635ZM23.4413 21.5045C22.694 21.5045 22.0961 21.8968 21.8612 22.6015L21.7011 21.6192H19.3844V29.9253H22.032V24.5338C22.363 24.1281 22.8327 23.9814 23.4733 23.9814C23.6122 23.9814 23.7616 23.9814 23.9431 24.0134V21.5685C23.7616 21.5259 23.6014 21.5045 23.4413 21.5045ZM25.9182 20.7971C26.6869 20.7971 27.3061 20.1673 27.3061 19.3986C27.3061 18.6192 26.6869 18 25.9182 18C25.1388 18 24.5196 18.6192 24.5196 19.3986C24.5196 20.1673 25.1388 20.7971 25.9182 20.7971ZM24.5837 21.6192H27.242V29.9253H24.5837V21.6192ZM34.7754 22.3665C34.3056 21.758 33.6544 21.4591 32.8216 21.4591C32.053 21.4591 31.3804 21.7794 30.7504 22.452L30.6117 21.6192H28.2842V33L30.932 32.5623V29.8932C31.3376 30.0213 31.754 30.0854 32.1277 30.0854C32.7896 30.0854 33.7505 29.9146 34.4978 29.1032C35.213 28.3238 35.5761 27.1175 35.5761 25.5267C35.5761 24.1174 35.3091 23.0499 34.7754 22.3665ZM32.5761 27.4911C32.3625 27.8968 32.0316 28.1104 31.6472 28.1104C31.3804 28.1104 31.1454 28.057 30.932 27.9502V24C31.3804 23.5303 31.786 23.4769 31.9355 23.4769C32.6081 23.4769 32.939 24.2029 32.939 25.6228C32.939 26.4342 32.8216 27.0641 32.5761 27.4911ZM43.1669 25.6975C43.1669 24.3737 42.8786 23.3274 42.3127 22.5907C41.7362 21.8434 40.8714 21.4591 39.7718 21.4591C37.5191 21.4591 36.1206 23.1246 36.1206 25.7936C36.1206 27.2883 36.4942 28.4093 37.2308 29.1245C37.8928 29.7651 38.843 30.0854 40.0707 30.0854C41.2024 30.0854 42.2487 29.8185 42.9106 29.3808L42.6224 27.5659C41.9711 27.9182 41.2131 28.1104 40.359 28.1104C39.8465 28.1104 39.4942 28.0036 39.238 27.7794C38.9604 27.5445 38.8002 27.1602 38.7469 26.6157H43.1348C43.1455 26.4876 43.1669 25.8897 43.1669 25.6975ZM38.7255 24.9929C38.8002 23.8078 39.1205 23.2527 39.7291 23.2527C40.327 23.2527 40.6366 23.8185 40.6793 24.9929H38.7255Z" fill="#4D96DA"/>
<rect x="0.5" y="0.5" width="49" height="49" rx="24.5" stroke="#FDFDFD"/>
</svg>
