<svg width="86" height="36" viewBox="0 0 86 36" fill="none" xmlns="http://www.w3.org/2000/svg">
<path d="M10.165 34.4518L10.1847 30.8488C10.1995 30.2934 9.99247 30.0034 9.50443 29.7674C7.42904 28.7549 5.36843 27.7128 3.30289 26.6756C1.09932 25.5697 0 23.7805 0 21.3228C0.00492969 14.3822 0.00985877 7.44169 0.0147885 0.506064C0.0147885 0.501149 0.0147885 0.501149 0.0147885 0.501149C0.0147885 0.132494 0.404234 -0.108361 0.739453 0.048932C1.45919 0.39301 2.11976 0.707596 2.77541 1.03693C4.2839 1.7939 5.8121 2.52138 7.29594 3.33242C9.23823 4.39415 10.1354 6.1342 10.1502 8.29697C10.1847 13.3353 10.1699 18.3735 10.1749 23.4118C10.1749 23.4757 10.1749 23.5347 10.1749 23.6035C10.1699 23.9771 10.5643 24.2229 10.9045 24.0557L19.5856 19.7351C19.9159 19.5729 20.3152 19.8039 20.3152 20.1726C20.3152 20.1775 20.3152 20.1775 20.3152 20.1824C20.3202 22.5762 20.3497 24.9651 20.3103 27.354C20.2758 29.4135 19.3638 31.0651 17.5743 32.058C15.2919 33.3164 13.3249 34.211 10.9883 35.3759C10.0368 35.7495 10.165 34.4518 10.165 34.4518Z" fill="#4D96DA"/>
<path d="M33.4806 27.4516C32.2993 27.4516 31.4239 27.1317 30.8543 26.4919C30.2848 25.8522 30 25.0618 30 24.121V6H32.7529V22.6532C32.7529 23.4812 32.7951 24.0927 32.8794 24.4879C32.9849 24.8642 33.1748 25.1183 33.449 25.25C33.7232 25.3817 34.1662 25.4476 34.778 25.4476L34.4299 27.4516H33.4806ZM43.5313 27.4516C41.9703 27.4516 40.6307 27.1317 39.5127 26.4919C38.4158 25.8333 37.5825 24.9489 37.013 23.8387C36.4645 22.7285 36.1903 21.496 36.1903 20.1411C36.1903 18.8427 36.4434 17.6573 36.9497 16.5847C37.4771 15.4933 38.2259 14.6371 39.1963 14.0161C40.1877 13.3763 41.3585 13.0565 42.7086 13.0565C44.4383 13.0565 45.8412 13.5739 46.917 14.6089C48.0139 15.6438 48.5624 17.0739 48.5624 18.8992C48.5624 19.2191 48.5202 19.6613 48.4358 20.2258H39.0064C39.0697 21.8629 39.5233 23.1048 40.367 23.9516C41.2319 24.7984 42.35 25.2218 43.7211 25.2218C44.3751 25.2218 45.0606 25.1559 45.7779 25.0242C46.5162 24.8737 47.1596 24.6667 47.708 24.4032L47.9612 26.6048C46.801 27.1694 45.3243 27.4516 43.5313 27.4516ZM45.7462 18.504C45.7462 17.5632 45.4825 16.8011 44.9552 16.2177C44.4489 15.6156 43.7106 15.3145 42.7402 15.3145C41.7909 15.3145 40.9999 15.578 40.367 16.1048C39.7553 16.6317 39.3439 17.4315 39.133 18.504H45.7462ZM55.0001 27.4516C53.1859 27.4516 51.6144 27.0753 50.2854 26.3226L50.6335 23.8387C51.9835 24.7796 53.3758 25.25 54.8102 25.25C55.5697 25.25 56.1603 25.1089 56.5822 24.8266C57.0252 24.5444 57.2467 24.1304 57.2467 23.5847C57.2467 23.1707 57.1412 22.832 56.9303 22.5686C56.7404 22.3051 56.4134 22.0511 55.9494 21.8065C55.4853 21.5618 54.7681 21.2419 53.7977 20.8468C52.6586 20.3763 51.8253 19.8401 51.298 19.2379C50.7706 18.6358 50.5069 17.8548 50.5069 16.8952C50.5069 15.7661 50.9499 14.8441 51.8359 14.129C52.7219 13.414 53.9137 13.0565 55.4114 13.0565C56.9303 13.0565 58.2592 13.3575 59.3984 13.9597L59.0503 16.246C58.4807 15.9073 57.9428 15.6626 57.4365 15.5121C56.9303 15.3427 56.3291 15.2581 55.6329 15.2581C54.8946 15.2581 54.3145 15.3992 53.8926 15.6815C53.4707 15.9637 53.2598 16.3589 53.2598 16.8669C53.2598 17.375 53.4391 17.7608 53.7977 18.0242C54.1774 18.2876 54.9052 18.6358 55.981 19.0686C57.4787 19.6707 58.5335 20.2823 59.1452 20.9032C59.757 21.5054 60.0629 22.3051 60.0629 23.3024C60.0629 24.6008 59.6093 25.6169 58.7022 26.3508C57.7952 27.0847 56.5611 27.4516 55.0001 27.4516ZM66.4023 27.4516C64.5881 27.4516 63.0166 27.0753 61.6876 26.3226L62.0357 23.8387C63.3857 24.7796 64.778 25.25 66.2124 25.25C66.9718 25.25 67.5625 25.1089 67.9844 24.8266C68.4274 24.5444 68.6489 24.1304 68.6489 23.5847C68.6489 23.1707 68.5434 22.832 68.3325 22.5686C68.1426 22.3051 67.8156 22.0511 67.3516 21.8065C66.8875 21.5618 66.1702 21.2419 65.1999 20.8468C64.0608 20.3763 63.2275 19.8401 62.7001 19.2379C62.1728 18.6358 61.9091 17.8548 61.9091 16.8952C61.9091 15.7661 62.3521 14.8441 63.2381 14.129C64.124 13.414 65.3159 13.0565 66.8136 13.0565C68.3325 13.0565 69.6614 13.3575 70.8006 13.9597L70.4525 16.246C69.8829 15.9073 69.345 15.6626 68.8387 15.5121C68.3325 15.3427 67.7313 15.2581 67.0351 15.2581C66.2968 15.2581 65.7167 15.3992 65.2948 15.6815C64.8729 15.9637 64.662 16.3589 64.662 16.8669C64.662 17.375 64.8413 17.7608 65.1999 18.0242C65.5796 18.2876 66.3074 18.6358 67.3832 19.0686C68.8809 19.6707 69.9357 20.2823 70.5474 20.9032C71.1592 21.5054 71.465 22.3051 71.465 23.3024C71.465 24.6008 71.0115 25.6169 70.1044 26.3508C69.1974 27.0847 67.9633 27.4516 66.4023 27.4516ZM77.8363 26.5484L72.1723 13.3387H75.1151L79.2602 23.6411L83.0573 13.3387H86L77.6781 34H74.7354L77.8363 26.5484Z" fill="#FDFDFD"/>
</svg>
