<svg width="32" height="32" viewBox="0 0 32 32" fill="none" xmlns="http://www.w3.org/2000/svg">
<path d="M25.3333 22.6667V15.7334C24.6667 15.8667 24 16.0001 23.3333 16.0001H22.6667V24.0001H9.33333V14.6667C9.33333 10.9334 12.2667 8.00008 16 8.00008C16.1333 6.26675 16.9333 4.80008 18 3.60008C17.6 3.06675 16.8 2.66675 16 2.66675C14.5333 2.66675 13.3333 3.86675 13.3333 5.33341V5.73342C9.33333 6.93342 6.66667 10.5334 6.66667 14.6667V22.6667L4 25.3334V26.6667H28V25.3334L25.3333 22.6667ZM13.3333 28.0001C13.3333 29.4667 14.5333 30.6667 16 30.6667C17.4667 30.6667 18.6667 29.4667 18.6667 28.0001H13.3333ZM26.5 8.50006C26.5 11.0334 25.8667 12.5001 23.3333 12.5001C20.8 12.5001 19.5 11.2001 19.5 8.66675C19.5 6.13341 20.8 4.50006 23.3333 4.50006C25.8667 4.50006 26.5 5.96673 26.5 8.50006Z" fill="#FDFDFD"/>
<circle cx="23.5" cy="8.5" r="4.5" fill="#4D96DA"/>
</svg>
