<svg width="32" height="32" viewBox="0 0 32 32" fill="none" xmlns="http://www.w3.org/2000/svg">
<path d="M25.3333 22.6665V15.7332C24.6667 15.8665 24 15.9998 23.3333 15.9998H22.6667V23.9998H9.33333V14.6665C9.33333 10.9332 12.2667 7.99984 16 7.99984C16.1333 6.2665 16.9333 4.79984 18 3.59984C17.6 3.0665 16.8 2.6665 16 2.6665C14.5333 2.6665 13.3333 3.8665 13.3333 5.33317V5.73317C9.33333 6.93317 6.66667 10.5332 6.66667 14.6665V22.6665L4 25.3332V26.6665H28V25.3332L25.3333 22.6665ZM13.3333 27.9998C13.3333 29.4665 14.5333 30.6665 16 30.6665C17.4667 30.6665 18.6667 29.4665 18.6667 27.9998H13.3333ZM26.5 8.49982C26.5 11.0332 25.8667 12.4998 23.3333 12.4998C20.8 12.4998 19.5 11.1998 19.5 8.6665C19.5 6.13317 20.8 4.49982 23.3333 4.49982C25.8667 4.49982 26.5 5.96648 26.5 8.49982Z" fill="#FDFDFD"/>
<circle cx="23.5" cy="8.5" r="4.5" fill="#4D96DA"/>
</svg>
