<svg width="25" height="30" viewBox="0 0 25 30" fill="none" xmlns="http://www.w3.org/2000/svg">
<path d="M21.0516 16.8112V12.0295C21.0494 9.89894 20.2933 7.83791 18.9173 6.21138C17.5412 4.58485 15.6339 3.49779 13.5332 3.1427V1.50368C13.5332 1.10488 13.3747 0.722414 13.0927 0.440419C12.8107 0.158423 12.4283 0 12.0295 0C11.6307 0 11.2482 0.158423 10.9662 0.440419C10.6842 0.722414 10.5258 1.10488 10.5258 1.50368V3.1427C8.42505 3.49779 6.51776 4.58485 5.14168 6.21138C3.7656 7.83791 3.00953 9.89894 3.00737 12.0295V16.8112C2.12989 17.1214 1.36985 17.6955 0.831445 18.4546C0.293036 19.2138 0.00261568 20.1209 0 21.0516V24.0589C0 24.4577 0.158424 24.8402 0.440419 25.1222C0.722415 25.4042 1.10488 25.5626 1.50368 25.5626H6.22525C6.57152 26.8368 7.32745 27.9616 8.37642 28.7636C9.42538 29.5655 10.7091 30 12.0295 30C13.3499 30 14.6336 29.5655 15.6825 28.7636C16.7315 27.9616 17.4874 26.8368 17.8337 25.5626H22.5553C22.9541 25.5626 23.3365 25.4042 23.6185 25.1222C23.9005 24.8402 24.0589 24.4577 24.0589 24.0589V21.0516C24.0563 20.1209 23.7659 19.2138 23.2275 18.4546C22.6891 17.6955 21.9291 17.1214 21.0516 16.8112ZM6.01474 12.0295C6.01474 10.4343 6.64843 8.90439 7.77641 7.77641C8.90439 6.64843 10.4343 6.01474 12.0295 6.01474C13.6247 6.01474 15.1546 6.64843 16.2825 7.77641C17.4105 8.90439 18.0442 10.4343 18.0442 12.0295V16.5405H6.01474V12.0295ZM12.0295 27.0663C11.5046 27.0631 10.9898 26.9227 10.5361 26.6589C10.0823 26.3951 9.70554 26.0172 9.44314 25.5626H14.6158C14.3534 26.0172 13.9766 26.3951 13.5229 26.6589C13.0692 26.9227 12.5543 27.0631 12.0295 27.0663ZM21.0516 22.5553H3.00737V21.0516C3.00737 20.6528 3.16579 20.2703 3.44779 19.9883C3.72978 19.7063 4.11225 19.5479 4.51105 19.5479H19.5479C19.9467 19.5479 20.3292 19.7063 20.6112 19.9883C20.8932 20.2703 21.0516 20.6528 21.0516 21.0516V22.5553Z" fill="#FDFDFD"/>
</svg>
