<svg width="9" height="14" viewBox="0 0 9 14" fill="none" xmlns="http://www.w3.org/2000/svg">
<path fill-rule="evenodd" clip-rule="evenodd" d="M7.99421 2.39736L3.37878 6.99881L7.99421 11.6003C8.1253 11.7303 8.22935 11.885 8.30036 12.0554C8.37136 12.2258 8.40792 12.4086 8.40792 12.5933C8.40792 12.7779 8.37136 12.9607 8.30036 13.1311C8.22935 13.3016 8.1253 13.4563 7.99421 13.5863C7.86419 13.7174 7.7095 13.8214 7.53907 13.8924C7.36864 13.9634 7.18583 14 7.00119 14C6.81656 14 6.63375 13.9634 6.46332 13.8924C6.29288 13.8214 6.1382 13.7174 6.00818 13.5863L0.413709 7.99183C0.282619 7.86181 0.17857 7.70712 0.107564 7.53668C0.0365581 7.36625 0 7.18344 0 6.99881C0 6.81417 0.0365581 6.63137 0.107564 6.46093C0.17857 6.2905 0.282619 6.13581 0.413709 6.00579L6.00818 0.411322C6.13858 0.280917 6.29339 0.177474 6.46378 0.106899C6.63416 0.0363247 6.81677 0 7.00119 0C7.18562 0 7.36823 0.0363247 7.53861 0.106899C7.70899 0.177474 7.86381 0.280917 7.99421 0.411322C8.12462 0.541727 8.22806 0.69654 8.29864 0.866922C8.36921 1.0373 8.40553 1.21992 8.40553 1.40434C8.40553 1.58876 8.36921 1.77138 8.29864 1.94176C8.22806 2.11214 8.12462 2.26695 7.99421 2.39736Z" fill="#FDFDFD"/>
</svg>
