<svg width="30" height="30" viewBox="0 0 30 30" fill="none" xmlns="http://www.w3.org/2000/svg">
<path fill-rule="evenodd" clip-rule="evenodd" d="M29.9879 15C29.9879 17.6716 29.2898 20.1801 28.066 22.3528L16.2964 10.1986L14.5992 8.446L12.902 10.1986L1.64016 21.8284C0.591588 19.7803 0 17.4593 0 15C0 6.71573 6.71302 0 14.994 0C23.2749 0 29.9879 6.71573 29.9879 15ZM14.5992 15.2382L25.0994 26.0815C24.1891 26.9128 23.1759 27.6334 22.0812 28.2219L15.0867 21.2246L11.745 24.565L17.0394 29.8616C16.3706 29.9529 15.6878 30 14.994 30C10.8967 30 7.18326 28.3559 4.4769 25.6912L14.5992 15.2382Z" fill="#4D96DA"/>
</svg>
