<svg width="11" height="10" viewBox="0 0 11 10" fill="none" xmlns="http://www.w3.org/2000/svg">
<path fill-rule="evenodd" clip-rule="evenodd" d="M0 4.85743C0 2.18384 2.18374 0 4.85743 0L4.85751 0.000114441C6.83486 0.000114441 8.54327 1.19635 9.29937 2.9001L9.5551 2.43682C9.61983 2.31466 9.71649 2.2123 9.83454 2.14061C9.95277 2.06892 10.088 2.0304 10.2262 2.02933C10.4073 2.02773 10.5832 2.09014 10.7224 2.20588C10.8619 2.32144 10.9559 2.48265 10.988 2.6608C11.0199 2.83912 10.9878 3.0228 10.8972 3.17973L9.61894 5.48053C9.52122 5.66029 9.35555 5.7935 9.15903 5.85057C8.96249 5.90763 8.75118 5.88374 8.57249 5.78423L6.27151 4.50596C6.09353 4.40627 5.96246 4.24007 5.907 4.04391C5.85153 3.84755 5.87632 3.6373 5.97583 3.45933C6.07552 3.28135 6.24172 3.1501 6.43807 3.09464C6.63424 3.03935 6.84449 3.06414 7.02246 3.16365L7.96528 3.68295C7.49305 2.42486 6.28686 1.5339 4.85753 1.5339C3.01289 1.5339 1.53398 3.01282 1.53398 4.85745C1.53398 6.11897 2.18758 7.20107 3.18765 7.76548C3.37846 7.85751 3.52273 8.02443 3.58622 8.22648C3.64952 8.42869 3.6267 8.64803 3.52273 8.8326C3.41894 9.01718 3.24329 9.15057 3.03749 9.20121C2.83188 9.25168 2.6145 9.21494 2.43671 9.09974C0.950122 8.26069 0 6.655 0 4.85743Z" fill="#FDFDFD"/>
</svg>
