<svg width="36" height="36" viewBox="0 0 36 36" fill="none" xmlns="http://www.w3.org/2000/svg">
<path d="M20.927 14.4956C17.9134 13.3773 16.2706 12.5171 16.2706 11.1531C16.2706 10.0001 17.2182 9.34245 18.9082 9.34245C21.9982 9.34245 25.1728 10.5329 27.3581 11.6055L28.593 3.98254C26.86 3.15282 23.3149 1.8 18.4143 1.8C14.9483 1.8 12.0651 2.70743 10.0046 4.3974C7.86231 6.16647 6.74815 8.7264 6.74815 11.815C6.74815 17.4191 10.1711 19.807 15.7336 21.8313C19.3203 23.1078 20.5135 24.0153 20.5135 25.4153C20.5135 26.775 19.348 27.5589 17.2474 27.5589C14.6458 27.5589 10.3584 26.2811 7.54874 24.6327L6.29999 32.3403C8.71563 33.6986 13.1695 35.1 17.7885 35.1C21.4529 35.1 24.5082 34.2342 26.5686 32.5845C28.8774 30.7738 30.072 28.0945 30.072 24.6313C30.072 18.9037 26.57 16.5131 20.9229 14.4956H20.927Z" fill="#FDFDFD"/>
</svg>
