<svg width="36" height="36" viewBox="0 0 36 36" fill="none" xmlns="http://www.w3.org/2000/svg">
<path d="M20.927 14.4957C17.9134 13.3773 16.2706 12.5171 16.2706 11.1532C16.2706 10.0002 17.2182 9.3425 18.9082 9.3425C21.9982 9.3425 25.1728 10.533 27.3581 11.6055L28.593 3.98259C26.86 3.15286 23.3149 1.80005 18.4143 1.80005C14.9483 1.80005 12.0651 2.70747 10.0046 4.39745C7.86231 6.16651 6.74815 8.72645 6.74815 11.815C6.74815 17.4191 10.1711 19.807 15.7336 21.8314C19.3203 23.1079 20.5135 24.0153 20.5135 25.4153C20.5135 26.775 19.348 27.559 17.2474 27.559C14.6458 27.559 10.3584 26.2811 7.54874 24.6327L6.29999 32.3403C8.71563 33.6987 13.1695 35.1 17.7885 35.1C21.4529 35.1 24.5082 34.2342 26.5686 32.5845C28.8774 30.7738 30.072 28.0946 30.072 24.6314C30.072 18.9038 26.57 16.5131 20.9229 14.4957H20.927Z" fill="#FDFDFD"/>
</svg>
