<svg width="36" height="36" viewBox="0 0 36 36" fill="none" xmlns="http://www.w3.org/2000/svg">
<path d="M20.927 14.4954C17.9134 13.3771 16.2706 12.5169 16.2706 11.1529C16.2706 9.99993 17.2182 9.34225 18.9082 9.34225C21.9982 9.34225 25.1728 10.5327 27.3581 11.6053L28.593 3.98234C26.86 3.15262 23.3149 1.7998 18.4143 1.7998C14.9483 1.7998 12.0651 2.70723 10.0046 4.3972C7.86231 6.16627 6.74815 8.7262 6.74815 11.8148C6.74815 17.4189 10.1711 19.8068 15.7336 21.8311C19.3203 23.1076 20.5135 24.0151 20.5135 25.4151C20.5135 26.7748 19.348 27.5587 17.2474 27.5587C14.6458 27.5587 10.3584 26.2809 7.54874 24.6325L6.29999 32.3401C8.71563 33.6984 13.1695 35.0998 17.7885 35.0998C21.4529 35.0998 24.5082 34.234 26.5686 32.5843C28.8774 30.7736 30.072 28.0943 30.072 24.6311C30.072 18.9035 26.57 16.5129 20.9229 14.4954H20.927Z" fill="#FDFDFD"/>
</svg>
