<svg width="40" height="40" viewBox="0 0 40 40" fill="none" xmlns="http://www.w3.org/2000/svg">
<g clip-path="url(#clip0_1_386)">
<path d="M11.25 31.25L28.75 31.25C31.7337 31.25 34.5952 30.0647 36.705 27.955C38.8147 25.8452 40 22.9837 40 20C40 17.0163 38.8147 14.1548 36.7049 12.045C34.5952 9.93527 31.7337 8.75 28.75 8.75L11.25 8.75C8.26631 8.75 5.40483 9.93527 3.29505 12.0451C1.18526 14.1548 -1.24435e-06 17.0163 -9.83506e-07 20C-7.22664e-07 22.9837 1.18527 25.8452 3.29505 27.955C5.40483 30.0647 8.26631 31.25 11.25 31.25ZM11.25 13.2813C12.5788 13.2813 13.8778 13.6753 14.9827 14.4136C16.0876 15.1518 16.9488 16.2012 17.4573 17.4288C17.9658 18.6565 18.0989 20.0075 17.8397 21.3108C17.5804 22.6141 16.9405 23.8112 16.0009 24.7509C15.0612 25.6905 13.8641 26.3304 12.5608 26.5897C11.2575 26.8489 9.90654 26.7158 8.67885 26.2073C7.45115 25.6988 6.40183 24.8376 5.66356 23.7327C4.9253 22.6278 4.53125 21.3288 4.53125 20C4.53001 19.1173 4.70296 18.2431 5.04017 17.4274C5.37738 16.6117 5.87223 15.8705 6.49637 15.2464C7.12051 14.6222 7.86167 14.1274 8.67739 13.7902C9.4931 13.453 10.3673 13.28 11.25 13.2813Z" fill="#8999AD"/>
</g>
<defs>
<clipPath id="clip0_1_386">
<rect width="40" height="40" fill="white" transform="translate(40 40) rotate(180)"/>
</clipPath>
</defs>
</svg>
