<svg width="40" height="40" viewBox="0 0 40 40" fill="none" xmlns="http://www.w3.org/2000/svg">
<g clip-path="url(#clip0_1_388)">
<path d="M28.75 8.75L11.25 8.75C8.26631 8.75 5.40483 9.93526 3.29505 12.045C1.18526 14.1548 0 17.0163 0 20C0 22.9837 1.18526 25.8452 3.29505 27.955C5.40483 30.0647 8.26631 31.25 11.25 31.25L28.75 31.25C31.7337 31.25 34.5952 30.0647 36.7049 27.955C38.8147 25.8452 40 22.9837 40 20C40 17.0163 38.8147 14.1548 36.7049 12.045C34.5952 9.93526 31.7337 8.75 28.75 8.75ZM28.75 26.7188C27.4212 26.7188 26.1222 26.3247 25.0173 25.5864C23.9124 24.8482 23.0512 23.7988 22.5427 22.5712C22.0342 21.3435 21.9011 19.9925 22.1603 18.6892C22.4196 17.3859 23.0595 16.1888 23.9991 15.2491C24.9388 14.3095 26.1359 13.6696 27.4392 13.4103C28.7425 13.1511 30.0935 13.2842 31.3212 13.7927C32.5488 14.3012 33.5982 15.1624 34.3364 16.2673C35.0747 17.3722 35.4688 18.6712 35.4688 20C35.47 20.8827 35.297 21.7569 34.9598 22.5726C34.6226 23.3883 34.1278 24.1295 33.5036 24.7536C32.8795 25.3778 32.1383 25.8726 31.3226 26.2098C30.5069 26.547 29.6327 26.72 28.75 26.7188Z" fill="#4D96DA"/>
</g>
<defs>
<clipPath id="clip0_1_388">
<rect width="40" height="40" fill="white"/>
</clipPath>
</defs>
</svg>
