<svg width="30" height="36" viewBox="0 0 30 36" fill="none" xmlns="http://www.w3.org/2000/svg">
<path fill-rule="evenodd" clip-rule="evenodd" d="M3.27273 27.8182L3.27273 8.18182C3.27273 6.87985 3.78994 5.6312 4.71057 4.71057C5.6312 3.78993 6.87985 3.27273 8.18182 3.27273L21.2727 3.27273C21.7067 3.27273 22.1229 3.10033 22.4298 2.79345C22.7367 2.48657 22.9091 2.07036 22.9091 1.63636C22.9091 1.20237 22.7367 0.786158 22.4298 0.479281C22.1229 0.172403 21.7067 9.48831e-07 21.2727 9.29861e-07L8.18182 3.57639e-07C6.01187 2.62787e-07 3.93079 0.862011 2.3964 2.3964C1.63665 3.15615 1.03398 4.05811 0.622806 5.05077C0.211631 6.04344 1.26294e-06 7.10737 1.21597e-06 8.18182L3.57639e-07 27.8182C3.38668e-07 28.2522 0.172402 28.6684 0.479279 28.9753C0.786158 29.2821 1.20237 29.4545 1.63636 29.4545C2.07035 29.4545 2.48657 29.2821 2.79345 28.9753C3.10033 28.6684 3.27273 28.2522 3.27273 27.8182ZM29.4545 19.6364L29.4545 11.4545C29.4545 10.1526 28.9373 8.90393 28.0167 7.9833C27.0961 7.06266 25.8474 6.54546 24.5455 6.54546L11.4545 6.54546C10.1526 6.54545 8.90393 7.06266 7.98329 7.98329C7.06266 8.90393 6.54546 10.1526 6.54546 11.4545L6.54546 19.6364L6.54546 22.9091L6.54545 31.0909C6.54545 32.3929 7.06266 33.6415 7.98329 34.5622C8.90393 35.4828 10.1526 36 11.4545 36L24.5455 36C25.8474 36 27.0961 35.4828 28.0167 34.5622C28.9373 33.6415 29.4545 32.3929 29.4545 31.0909L29.4545 24.6436L29.4545 19.6364ZM26.1818 22.9091L26.1818 11.4545C26.1818 11.0206 26.0094 10.6043 25.7025 10.2975C25.3957 9.99059 24.9794 9.81818 24.5455 9.81818L11.4545 9.81818C11.0206 9.81818 10.6043 9.99058 10.2975 10.2975C9.99059 10.6043 9.81818 11.0206 9.81818 11.4545L9.81818 19.6364L9.81818 22.9091L9.81818 31.0909C9.81818 31.5249 9.99058 31.9411 10.2975 32.248C10.6043 32.5549 11.0206 32.7273 11.4545 32.7273L24.5455 32.7273C24.9794 32.7273 25.3957 32.5549 25.7025 32.248C26.0094 31.9411 26.1818 31.5249 26.1818 31.0909L26.1818 22.9091Z" fill="#FDFDFD"/>
</svg>
