<svg width="29" height="36" viewBox="0 0 29 36" fill="none" xmlns="http://www.w3.org/2000/svg">
<path d="M9 14.4H10.8C11.2774 14.4 11.7352 14.2104 12.0728 13.8728C12.4104 13.5352 12.6 13.0774 12.6 12.6C12.6 12.1226 12.4104 11.6648 12.0728 11.3272C11.7352 10.9896 11.2774 10.8 10.8 10.8H9C8.52261 10.8 8.06477 10.9896 7.72721 11.3272C7.38964 11.6648 7.2 12.1226 7.2 12.6C7.2 13.0774 7.38964 13.5352 7.72721 13.8728C8.06477 14.2104 8.52261 14.4 9 14.4ZM18.3788 18.6952L15.3668 22.5686L13.8041 21.1623C13.6219 20.9983 13.4081 20.8732 13.1758 20.7947C12.9435 20.7163 12.6977 20.6861 12.4533 20.7061C12.2089 20.7261 11.9712 20.7959 11.7548 20.911C11.5384 21.0262 11.3477 21.1844 11.1946 21.3759L7.59463 25.8759C7.44598 26.0603 7.33521 26.2723 7.26867 26.4997C7.20213 26.727 7.18113 26.9653 7.20687 27.2008C7.23262 27.4362 7.3046 27.6643 7.4187 27.8719C7.53279 28.0795 7.68675 28.2626 7.87174 28.4105C8.05674 28.5585 8.26912 28.6685 8.49672 28.7342C8.72432 28.7999 8.96265 28.82 9.19804 28.7934C9.43343 28.7668 9.66125 28.694 9.86843 28.5791C10.0756 28.4643 10.2581 28.3096 10.4054 28.1241L12.8136 25.1138L14.3956 26.5376C14.5794 26.7031 14.7953 26.8289 15.0299 26.9073C15.2644 26.9856 15.5126 27.0147 15.759 26.9929C16.0053 26.971 16.2445 26.8987 16.4616 26.7803C16.6787 26.6619 16.8691 26.5 17.0209 26.3047L21.2212 20.9047C21.5142 20.5278 21.6455 20.0499 21.5861 19.5762C21.5268 19.1025 21.2817 18.6718 20.9048 18.3788C20.7182 18.2337 20.5048 18.1268 20.2768 18.0642C20.0489 18.0015 19.8108 17.9844 19.5763 18.0138C19.1026 18.0731 18.6718 18.3183 18.3788 18.6952ZM28.7776 12.4889C28.754 12.055 28.5756 11.6438 28.2747 11.3302L28.2721 11.3268L17.4732 0.527886L17.4699 0.525258C17.3199 0.380332 17.1456 0.262864 16.955 0.1782C16.9012 0.153 16.8452 0.138762 16.7885 0.1188C16.6338 0.0643999 16.4723 0.0317895 16.3085 0.0219061C16.2707 0.0195481 16.2384 0 16.2 0H5.4C3.96831 0.00156275 2.59571 0.570992 1.58335 1.58335C0.570992 2.59571 0.00156275 3.96831 0 5.4V30.6C0.00156275 32.0317 0.570992 33.4043 1.58335 34.4166C2.59571 35.429 3.96831 35.9984 5.4 36H23.4C24.8317 35.9984 26.2043 35.429 27.2167 34.4166C28.229 33.4043 28.7984 32.0317 28.8 30.6V12.6C28.8 12.5606 28.7802 12.5277 28.7776 12.4889ZM18 6.14531L22.6547 10.8H19.8C19.3228 10.7994 18.8653 10.6095 18.5279 10.2721C18.1905 9.93468 18.0006 9.4772 18 9V6.14531ZM25.2 30.6C25.1994 31.0772 25.0095 31.5347 24.6721 31.8721C24.3347 32.2095 23.8772 32.3994 23.4 32.4H5.4C4.9228 32.3994 4.46532 32.2095 4.12789 31.8721C3.79046 31.5347 3.60062 31.0772 3.6 30.6V5.4C3.60062 4.9228 3.79046 4.46532 4.12789 4.12789C4.46532 3.79046 4.9228 3.60062 5.4 3.6H14.4V9C14.4016 10.4317 14.971 11.8043 15.9834 12.8167C16.9957 13.829 18.3683 14.3984 19.8 14.4H25.2V30.6Z" fill="#FDFDFD"/>
</svg>
