<svg width="90" height="38" viewBox="0 0 90 38" fill="none" xmlns="http://www.w3.org/2000/svg">
<path fill-rule="evenodd" clip-rule="evenodd" d="M9.40483 16.7906C7.46548 16.0733 6.40265 15.5154 6.40265 14.6387C6.40265 13.8946 7.01377 13.4696 8.10309 13.4696C10.0956 13.4696 12.1412 14.2401 13.5493 14.9308L14.3463 10.0159C13.2305 9.48453 10.9457 8.60781 7.78429 8.60781C5.55263 8.60781 3.69279 9.19222 2.36456 10.2815C0.982924 11.4239 0.265607 13.0711 0.265607 15.0637C0.265607 18.6767 2.47076 20.2178 6.05734 21.5195C8.3687 22.343 9.13922 22.9276 9.13922 23.8309C9.13922 24.7076 8.3952 25.2123 7.04027 25.2123C5.36653 25.2123 2.60366 24.3888 0.797019 23.3262L0 28.2942C1.54084 29.1709 4.41011 30.0741 7.38578 30.0741C9.75013 30.0741 11.7162 29.5162 13.0446 28.4536C14.5322 27.2846 15.3028 25.5578 15.3028 23.3262C15.3028 19.6332 13.0446 18.0923 9.40483 16.7906ZM28.2776 13.8946L29.0747 9.00632H24.867V3.07211L19.2098 4.00303L18.3928 9.00632L16.4031 9.32911L15.6582 13.8946H18.3846V23.4856C18.3846 25.9828 19.0223 27.7098 20.324 28.7724C21.4133 29.6491 22.9807 30.0741 25.1858 30.0741C26.886 30.0741 27.9222 29.782 28.6395 29.5959V24.4153C28.241 24.5217 27.3378 24.7076 26.7266 24.7076C25.4249 24.7076 24.867 24.0435 24.867 22.5291V13.8946H28.2776ZM40.9136 8.72078C39.0539 8.72078 37.5661 9.69713 36.9817 11.4506L36.5832 9.00632H30.8181V29.6756H37.4067V16.2592C38.2304 15.2496 39.3992 14.8845 40.9933 14.8845C41.3388 14.8845 41.7106 14.8845 42.1623 14.9642V8.88019C41.7106 8.77399 41.3121 8.72078 40.9136 8.72078ZM47.0773 6.96057C48.9902 6.96057 50.531 5.39323 50.531 3.48038C50.531 1.54084 48.9902 0 47.0773 0C45.1378 0 43.5969 1.54084 43.5969 3.48038C43.5969 5.39323 45.1378 6.96057 47.0773 6.96057ZM43.7564 9.00632H50.3716V29.6756H43.7564V9.00632ZM69.1181 10.866C67.9491 9.35163 66.3285 8.60781 64.2563 8.60781C62.3434 8.60781 60.6697 9.40483 59.1022 11.0786L58.7568 9.00632H52.9651V37.327L59.5539 36.2379V29.5959C60.5633 29.9147 61.5994 30.0741 62.5293 30.0741C64.1766 30.0741 66.5676 29.6491 68.4273 27.6301C70.2072 25.6905 71.1106 22.6885 71.1106 18.7299C71.1106 15.2231 70.4463 12.5664 69.1181 10.866ZM63.6452 23.6183C63.1137 24.6279 62.2902 25.1593 61.3338 25.1593C60.6697 25.1593 60.0851 25.0264 59.5539 24.7608V14.9308C60.6697 13.7619 61.6791 13.629 62.0511 13.629C63.7249 13.629 64.5484 15.4357 64.5484 18.9691C64.5484 20.9881 64.2563 22.5556 63.6452 23.6183ZM90 19.155C90 15.8607 89.2827 13.257 87.8745 11.4239C86.4399 9.56423 84.288 8.60781 81.5516 8.60781C75.9458 8.60781 72.4656 12.7523 72.4656 19.3941C72.4656 23.1136 73.3953 25.9031 75.2284 27.6831C76.8757 29.2771 79.2402 30.0741 82.2954 30.0741C85.1115 30.0741 87.7151 29.41 89.3624 28.3207L88.6451 23.8044C87.0243 24.6811 85.1382 25.1593 83.0127 25.1593C81.7375 25.1593 80.8608 24.8935 80.2232 24.3356C79.5323 23.7512 79.1338 22.7947 79.0011 21.4398H89.9203C89.9468 21.121 90 19.6332 90 19.155ZM78.9479 17.4015C79.1338 14.4525 79.9309 13.0711 81.4452 13.0711C82.933 13.0711 83.7036 14.4792 83.8098 17.4015H78.9479Z" fill="#FDFDFD"/>
</svg>
