<svg width="47" height="36" viewBox="0 0 47 36" fill="none" xmlns="http://www.w3.org/2000/svg">
<path d="M23.9294 18.4659C25.0593 17.4878 25.9656 16.2781 26.5868 14.9189C27.2079 13.5596 27.5294 12.0827 27.5294 10.5882C27.5294 7.78006 26.4139 5.0869 24.4282 3.10122C22.4425 1.11554 19.7493 3.7887e-07 16.9412 3.7887e-07C14.133 3.7887e-07 11.4398 1.11554 9.45416 3.10122C7.46848 5.0869 6.35294 7.78006 6.35294 10.5882C6.35292 12.0827 6.6744 13.5596 7.29556 14.9189C7.91672 16.2781 8.82301 17.4878 9.95294 18.4659C6.98853 19.8082 4.47346 21.9759 2.70843 24.7099C0.943402 27.4438 0.00311687 30.6282 0 33.8824C0 34.444 0.223108 34.9826 0.620244 35.3798C1.01738 35.7769 1.55601 36 2.11765 36C2.67928 36 3.21791 35.7769 3.61505 35.3798C4.01219 34.9826 4.23529 34.444 4.23529 33.8824C4.23529 30.5125 5.57395 27.2808 7.95676 24.8979C10.3396 22.5151 13.5714 21.1765 16.9412 21.1765C20.311 21.1765 23.5428 22.5151 25.9256 24.8979C28.3084 27.2808 29.6471 30.5125 29.6471 33.8824C29.6471 34.444 29.8702 34.9826 30.2673 35.3798C30.6644 35.7769 31.2031 36 31.7647 36C32.3263 36 32.865 35.7769 33.2621 35.3798C33.6592 34.9826 33.8824 34.444 33.8824 33.8824C33.8792 30.6282 32.9389 27.4438 31.1739 24.7099C29.4089 21.9759 26.8938 19.8082 23.9294 18.4659ZM16.9412 16.9412C15.6847 16.9412 14.4564 16.5686 13.4117 15.8705C12.3669 15.1724 11.5527 14.1802 11.0718 13.0194C10.591 11.8586 10.4652 10.5812 10.7103 9.34884C10.9554 8.11649 11.5605 6.9845 12.449 6.09603C13.3374 5.20755 14.4694 4.60249 15.7018 4.35737C16.9341 4.11224 18.2115 4.23805 19.3723 4.71888C20.5332 5.19972 21.5254 6.01399 22.2235 7.05873C22.9215 8.10347 23.2941 9.33174 23.2941 10.5882C23.2941 12.2731 22.6248 13.889 21.4334 15.0804C20.242 16.2719 18.6261 16.9412 16.9412 16.9412ZM37.5671 17.6188C38.9223 16.0927 39.8075 14.2074 40.1163 12.1899C40.425 10.1724 40.1441 8.10863 39.3073 6.24706C38.4705 4.38549 37.1134 2.80545 35.3996 1.69713C33.6857 0.588812 31.6881 -0.000545506 29.6471 3.7887e-07C29.0854 3.7887e-07 28.5468 0.223109 28.1497 0.620245C27.7525 1.01738 27.5294 1.55601 27.5294 2.11765C27.5294 2.67928 27.7525 3.21791 28.1497 3.61505C28.5468 4.01219 29.0854 4.23529 29.6471 4.23529C31.332 4.23529 32.9479 4.90462 34.1393 6.09603C35.3307 7.28744 36 8.90333 36 10.5882C35.997 11.7005 35.702 12.7925 35.1446 13.755C34.5872 14.7175 33.7868 15.5168 32.8235 16.0729C32.5096 16.254 32.2473 16.5127 32.0619 16.8242C31.8766 17.1356 31.7742 17.4894 31.7647 17.8518C31.7558 18.2113 31.8387 18.5671 32.0054 18.8857C32.1721 19.2043 32.4172 19.4753 32.7176 19.6729L33.5435 20.2235L33.8188 20.3718C36.3714 21.5825 38.5249 23.4974 40.0256 25.891C41.5263 28.2846 42.3117 31.0573 42.2894 33.8824C42.2894 34.444 42.5125 34.9826 42.9097 35.3798C43.3068 35.7769 43.8454 36 44.4071 36C44.9687 36 45.5073 35.7769 45.9045 35.3798C46.3016 34.9826 46.5247 34.444 46.5247 33.8824C46.542 30.6327 45.7281 27.4325 44.1603 24.586C42.5925 21.7395 40.3228 19.3411 37.5671 17.6188Z" fill="#FDFDFD"/>
</svg>
