<svg width="29" height="36" viewBox="0 0 29 36" fill="none" xmlns="http://www.w3.org/2000/svg">
<path d="M9 14.4H10.8C11.2774 14.4 11.7352 14.2104 12.0728 13.8728C12.4104 13.5352 12.6 13.0774 12.6 12.6C12.6 12.1226 12.4104 11.6648 12.0728 11.3272C11.7352 10.9896 11.2774 10.8 10.8 10.8H9C8.52261 10.8 8.06477 10.9896 7.72721 11.3272C7.38964 11.6648 7.2 12.1226 7.2 12.6C7.2 13.0774 7.38964 13.5352 7.72721 13.8728C8.06477 14.2104 8.52261 14.4 9 14.4ZM9 18C8.52261 18 8.06477 18.1896 7.72721 18.5272C7.38964 18.8648 7.2 19.3226 7.2 19.8C7.2 20.2774 7.38964 20.7352 7.72721 21.0728C8.06477 21.4104 8.52261 21.6 9 21.6H19.8C20.2774 21.6 20.7352 21.4104 21.0728 21.0728C21.4104 20.7352 21.6 20.2774 21.6 19.8C21.6 19.3226 21.4104 18.8648 21.0728 18.5272C20.7352 18.1896 20.2774 18 19.8 18H9ZM28.8 12.492C28.7813 12.3266 28.7451 12.1637 28.692 12.006V11.844C28.6055 11.6589 28.49 11.4888 28.35 11.34L17.55 0.54C17.4012 0.399989 17.2311 0.284546 17.046 0.198C16.9923 0.190368 16.9377 0.190368 16.884 0.198C16.7011 0.0931342 16.4992 0.0258196 16.29 0H5.4C3.96783 0 2.59432 0.568927 1.58162 1.58162C0.568927 2.59432 0 3.96783 0 5.4V30.6C0 32.0322 0.568927 33.4057 1.58162 34.4184C2.59432 35.4311 3.96783 36 5.4 36H23.4C24.8322 36 26.2057 35.4311 27.2184 34.4184C28.2311 33.4057 28.8 32.0322 28.8 30.6V12.6C28.8 12.6 28.8 12.6 28.8 12.492ZM18 6.138L22.662 10.8H19.8C19.3226 10.8 18.8648 10.6104 18.5272 10.2728C18.1896 9.93523 18 9.47739 18 9V6.138ZM25.2 30.6C25.2 31.0774 25.0104 31.5352 24.6728 31.8728C24.3352 32.2104 23.8774 32.4 23.4 32.4H5.4C4.92261 32.4 4.46477 32.2104 4.12721 31.8728C3.78964 31.5352 3.6 31.0774 3.6 30.6V5.4C3.6 4.92261 3.78964 4.46477 4.12721 4.12721C4.46477 3.78964 4.92261 3.6 5.4 3.6H14.4V9C14.4 10.4322 14.9689 11.8057 15.9816 12.8184C16.9943 13.8311 18.3678 14.4 19.8 14.4H25.2V30.6ZM19.8 25.2H9C8.52261 25.2 8.06477 25.3896 7.72721 25.7272C7.38964 26.0648 7.2 26.5226 7.2 27C7.2 27.4774 7.38964 27.9352 7.72721 28.2728C8.06477 28.6104 8.52261 28.8 9 28.8H19.8C20.2774 28.8 20.7352 28.6104 21.0728 28.2728C21.4104 27.9352 21.6 27.4774 21.6 27C21.6 26.5226 21.4104 26.0648 21.0728 25.7272C20.7352 25.3896 20.2774 25.2 19.8 25.2Z" fill="#FDFDFD"/>
</svg>
