<svg width="33" height="26" viewBox="0 0 33 26" fill="none" xmlns="http://www.w3.org/2000/svg">
<path d="M32.3757 12.35C29.0932 4.72875 22.9182 0 16.2557 0C9.59316 0 3.41816 4.72875 0.135663 12.35C0.0461849 12.555 0 12.7763 0 13C0 13.2237 0.0461849 13.445 0.135663 13.65C3.41816 21.2712 9.59316 26 16.2557 26C22.9182 26 29.0932 21.2712 32.3757 13.65C32.4651 13.445 32.5113 13.2237 32.5113 13C32.5113 12.7763 32.4651 12.555 32.3757 12.35ZM16.2557 22.75C11.1044 22.75 6.22941 19.0288 3.41816 13C6.22941 6.97125 11.1044 3.25 16.2557 3.25C21.4069 3.25 26.2819 6.97125 29.0932 13C26.2819 19.0288 21.4069 22.75 16.2557 22.75ZM16.2557 6.5C14.9701 6.5 13.7134 6.88122 12.6445 7.59545C11.5755 8.30968 10.7424 9.32484 10.2504 10.5126C9.75848 11.7003 9.62975 13.0072 9.88056 14.2681C10.1314 15.529 10.7504 16.6872 11.6595 17.5962C12.5685 18.5052 13.7267 19.1243 14.9876 19.3751C16.2485 19.6259 17.5554 19.4972 18.7431 19.0052C19.9308 18.5132 20.946 17.6801 21.6602 16.6112C22.3744 15.5423 22.7557 14.2856 22.7557 13C22.7557 11.2761 22.0708 9.62279 20.8519 8.40381C19.6329 7.18482 17.9796 6.5 16.2557 6.5ZM16.2557 16.25C15.6129 16.25 14.9845 16.0594 14.4501 15.7023C13.9156 15.3452 13.499 14.8376 13.2531 14.2437C13.0071 13.6499 12.9427 12.9964 13.0681 12.366C13.1935 11.7355 13.503 11.1564 13.9576 10.7019C14.4121 10.2474 14.9912 9.93785 15.6216 9.81245C16.2521 9.68705 16.9055 9.75141 17.4994 9.99739C18.0932 10.2434 18.6008 10.6599 18.9579 11.1944C19.3151 11.7289 19.5057 12.3572 19.5057 13C19.5057 13.862 19.1633 14.6886 18.5538 15.2981C17.9443 15.9076 17.1176 16.25 16.2557 16.25Z" fill="#FDFDFD"/>
</svg>
