<svg width="16" height="17" viewBox="0 0 16 17" fill="none" xmlns="http://www.w3.org/2000/svg">
<path d="M15.2162 12.3303L13.5562 10.5622C13.1991 10.2092 12.7487 9.97534 12.2629 9.89063C11.777 9.80591 11.2779 9.87424 10.8296 10.0868L10.1079 9.33622C10.9584 8.15435 11.3468 6.68128 11.1949 5.21354C11.0431 3.7458 10.3622 2.39239 9.28943 1.42574C8.21664 0.459095 6.83157 -0.0490034 5.41305 0.0037294C3.99452 0.0564622 2.64787 0.66611 1.64418 1.70995C0.640491 2.75378 0.0542906 4.1543 0.00358596 5.62957C-0.0471187 7.10484 0.441437 8.54531 1.3709 9.66101C2.30037 10.7767 3.60173 11.4848 5.01302 11.6427C6.4243 11.8007 7.84072 11.3967 8.97713 10.5122L9.69086 11.2545C9.46238 11.7212 9.38049 12.2507 9.45675 12.7685C9.533 13.2862 9.76354 13.7659 10.1159 14.1402L11.816 15.9083C12.2671 16.3768 12.8786 16.64 13.5161 16.64C14.1537 16.64 14.7651 16.3768 15.2162 15.9083C15.4454 15.6752 15.6274 15.397 15.7517 15.0898C15.876 14.7825 15.9401 14.4526 15.9401 14.1193C15.9401 13.786 15.876 13.4561 15.7517 13.1488C15.6274 12.8416 15.4454 12.5634 15.2162 12.3303ZM8.41578 8.79411C7.85461 9.37625 7.14013 9.77236 6.3626 9.93241C5.58508 10.0925 4.77938 10.0093 4.0473 9.69333C3.31521 9.3774 2.68958 8.8429 2.24944 8.15737C1.80929 7.47183 1.57439 6.666 1.57439 5.84169C1.57439 5.01737 1.80929 4.21155 2.24944 3.52601C2.68958 2.84047 3.31521 2.30598 4.0473 1.99005C4.77938 1.67411 5.58508 1.59092 6.3626 1.75097C7.14013 1.91102 7.85461 2.30713 8.41578 2.88927C8.78919 3.27664 9.08544 3.73681 9.28758 4.24343C9.48972 4.75006 9.59377 5.29318 9.59377 5.84169C9.59377 6.3902 9.48972 6.93332 9.28758 7.43995C9.08544 7.94657 8.78919 8.40674 8.41578 8.79411ZM14.0855 14.6906C14.0109 14.7688 13.9222 14.8308 13.8245 14.8732C13.7268 14.9155 13.622 14.9373 13.5161 14.9373C13.4102 14.9373 13.3054 14.9155 13.2077 14.8732C13.11 14.8308 13.0213 14.7688 12.9467 14.6906L11.2466 12.9225C11.1715 12.845 11.1118 12.7527 11.0711 12.6511C11.0304 12.5494 11.0094 12.4404 11.0094 12.3303C11.0094 12.2202 11.0304 12.1112 11.0711 12.0096C11.1118 11.908 11.1715 11.8157 11.2466 11.7382C11.3212 11.66 11.4099 11.598 11.5076 11.5556C11.6053 11.5133 11.7101 11.4915 11.816 11.4915C11.9219 11.4915 12.0267 11.5133 12.1244 11.5556C12.2221 11.598 12.3108 11.66 12.3854 11.7382L14.0855 13.5063C14.1606 13.5838 14.2203 13.6761 14.261 13.7777C14.3017 13.8793 14.3227 13.9884 14.3227 14.0985C14.3227 14.2086 14.3017 14.3176 14.261 14.4192C14.2203 14.5208 14.1606 14.6131 14.0855 14.6906Z" fill="#FDFDFD"/>
</svg>
