<svg width="26" height="26" viewBox="0 0 26 26" fill="none" xmlns="http://www.w3.org/2000/svg">
<path d="M20.7749 15.6168C20.008 15.6219 19.2518 15.7967 18.5606 16.1289C17.8694 16.461 17.2604 16.9421 16.7773 17.5377L10.158 14.4876C10.4692 13.5346 10.4692 12.5073 10.158 11.5544L16.7773 8.50429C17.5582 9.44652 18.6467 10.0826 19.8509 10.3004C21.0551 10.5181 22.2976 10.3035 23.3589 9.69434C24.4203 9.0852 25.2323 8.12073 25.6518 6.97114C26.0712 5.82154 26.0711 4.56073 25.6515 3.41121C25.2318 2.26169 24.4196 1.29736 23.3581 0.688419C22.2966 0.0794762 21.0542 -0.134937 19.85 0.0830199C18.6458 0.300977 17.5574 0.937292 16.7767 1.87967C15.996 2.82204 15.5734 4.00989 15.5832 5.23358C15.5872 5.54278 15.6175 5.85108 15.6741 6.15509L8.82118 9.30899C8.09057 8.5946 7.16538 8.1117 6.16153 7.92079C5.15768 7.72988 4.11982 7.83946 3.17797 8.2358C2.23613 8.63213 1.43218 9.29759 0.866866 10.1488C0.301549 11 0 11.9991 0 13.021C0 14.0428 0.301549 15.0419 0.866866 15.8932C1.43218 16.7444 2.23613 17.4098 3.17797 17.8062C4.11982 18.2025 5.15768 18.3121 6.16153 18.1212C7.16538 17.9303 8.09057 17.4474 8.82118 16.733L15.6741 19.8869C15.6175 20.1909 15.5872 20.4992 15.5832 20.8084C15.5832 21.8352 15.8877 22.8389 16.4582 23.6927C17.0287 24.5464 17.8395 25.2119 18.7881 25.6048C19.7368 25.9978 20.7806 26.1006 21.7877 25.9002C22.7948 25.6999 23.7198 25.2055 24.4459 24.4794C25.1719 23.7534 25.6664 22.8283 25.8667 21.8212C26.067 20.8142 25.9642 19.7703 25.5713 18.8217C25.1783 17.873 24.5129 17.0622 23.6592 16.4917C22.8054 15.9213 21.8017 15.6168 20.7749 15.6168ZM20.7749 2.63778C21.2883 2.63778 21.7901 2.79002 22.217 3.07525C22.6439 3.36048 22.9766 3.76589 23.1731 4.24021C23.3695 4.71453 23.4209 5.23646 23.3208 5.74C23.2206 6.24353 22.9734 6.70606 22.6104 7.06909C22.2473 7.43212 21.7848 7.67935 21.2813 7.7795C20.7777 7.87966 20.2558 7.82826 19.7815 7.63179C19.3072 7.43532 18.9018 7.10261 18.6165 6.67573C18.3313 6.24885 18.1791 5.74698 18.1791 5.23358C18.1791 4.54513 18.4525 3.88488 18.9393 3.39807C19.4262 2.91126 20.0864 2.63778 20.7749 2.63778ZM5.20004 15.6168C4.68664 15.6168 4.18477 15.4645 3.75789 15.1793C3.33101 14.8941 2.9983 14.4887 2.80183 14.0144C2.60536 13.54 2.55395 13.0181 2.65411 12.5146C2.75427 12.011 3.0015 11.5485 3.36453 11.1855C3.72756 10.8224 4.19009 10.5752 4.69362 10.4751C5.19716 10.3749 5.71909 10.4263 6.19341 10.6228C6.66773 10.8192 7.07314 11.152 7.35837 11.5788C7.6436 12.0057 7.79584 12.5076 7.79584 13.021C7.79584 13.7094 7.52236 14.3697 7.03555 14.8565C6.54874 15.3433 5.88849 15.6168 5.20004 15.6168ZM20.7749 23.4042C20.2615 23.4042 19.7596 23.252 19.3327 22.9667C18.9058 22.6815 18.5731 22.2761 18.3766 21.8018C18.1802 21.3274 18.1288 20.8055 18.2289 20.302C18.3291 19.7984 18.5763 19.3359 18.9393 18.9729C19.3024 18.6099 19.7649 18.3626 20.2684 18.2625C20.772 18.1623 21.2939 18.2137 21.7682 18.4102C22.2425 18.6067 22.648 18.9394 22.9332 19.3662C23.2184 19.7931 23.3707 20.295 23.3707 20.8084C23.3707 21.4968 23.0972 22.1571 22.6104 22.6439C22.1236 23.1307 21.4633 23.4042 20.7749 23.4042Z" fill="#FDFDFD"/>
</svg>
