<svg width="36" height="36" viewBox="0 0 36 36" fill="none" xmlns="http://www.w3.org/2000/svg">
<path d="M19.7961 25.2021H8.99823C8.52093 25.2021 8.06319 25.3917 7.72569 25.7292C7.38819 26.0667 7.19858 26.5245 7.19858 27.0018C7.19858 27.4791 7.38819 27.9368 7.72569 28.2743C8.06319 28.6118 8.52093 28.8014 8.99823 28.8014H19.7961C20.2734 28.8014 20.7311 28.6118 21.0686 28.2743C21.4061 27.9368 21.5957 27.4791 21.5957 27.0018C21.5957 26.5245 21.4061 26.0667 21.0686 25.7292C20.7311 25.3917 20.2734 25.2021 19.7961 25.2021ZM12.5975 14.4043H16.1968C16.6741 14.4043 17.1318 14.2147 17.4693 13.8772C17.8068 13.5397 17.9964 13.0819 17.9964 12.6046C17.9964 12.1274 17.8068 11.6696 17.4693 11.3321C17.1318 10.9946 16.6741 10.805 16.1968 10.805H12.5975C12.1202 10.805 11.6625 10.9946 11.325 11.3321C10.9875 11.6696 10.7979 12.1274 10.7979 12.6046C10.7979 13.0819 10.9875 13.5397 11.325 13.8772C11.6625 14.2147 12.1202 14.4043 12.5975 14.4043ZM34.1932 18.0036H28.7943V1.8068C28.7955 1.48968 28.713 1.17786 28.555 0.902918C28.397 0.627972 28.1691 0.399663 27.8945 0.241106C27.6209 0.0831549 27.3105 0 26.9946 0C26.6787 0 26.3684 0.0831549 26.0948 0.241106L20.6959 3.33649L15.297 0.241106C15.0234 0.0831549 14.7131 0 14.3972 0C14.0812 0 13.7709 0.0831549 13.4973 0.241106L8.0984 3.33649L2.69948 0.241106C2.4259 0.0831549 2.11556 0 1.79966 0C1.48375 0 1.17342 0.0831549 0.899835 0.241106C0.625202 0.399663 0.397342 0.627972 0.239327 0.902918C0.0813129 1.17786 -0.00124478 1.48968 1.41864e-05 1.8068V30.6011C1.41864e-05 32.033 0.568828 33.4062 1.58132 34.4187C2.59382 35.4312 3.96706 36 5.39894 36H30.5939C32.0258 36 33.3991 35.4312 34.4115 34.4187C35.424 33.4062 35.9929 32.033 35.9929 30.6011V19.8032C35.9929 19.3259 35.8033 18.8682 35.4658 18.5307C35.1283 18.1932 34.6705 18.0036 34.1932 18.0036ZM5.39894 32.4007C4.92165 32.4007 4.4639 32.2111 4.1264 31.8736C3.7889 31.5361 3.5993 31.0784 3.5993 30.6011V4.92018L7.19858 6.97177C7.47634 7.11684 7.78505 7.19261 8.0984 7.19261C8.41176 7.19261 8.72047 7.11684 8.99823 6.97177L14.3972 3.87638L19.7961 6.97177C20.0738 7.11684 20.3825 7.19261 20.6959 7.19261C21.0093 7.19261 21.318 7.11684 21.5957 6.97177L25.195 4.92018V30.6011C25.1999 31.215 25.3094 31.8236 25.5189 32.4007H5.39894ZM32.3936 30.6011C32.3936 31.0784 32.204 31.5361 31.8665 31.8736C31.529 32.2111 31.0712 32.4007 30.5939 32.4007C30.1166 32.4007 29.6589 32.2111 29.3214 31.8736C28.9839 31.5361 28.7943 31.0784 28.7943 30.6011V21.6029H32.3936V30.6011ZM19.7961 18.0036H8.99823C8.52093 18.0036 8.06319 18.1932 7.72569 18.5307C7.38819 18.8682 7.19858 19.3259 7.19858 19.8032C7.19858 20.2805 7.38819 20.7383 7.72569 21.0758C8.06319 21.4133 8.52093 21.6029 8.99823 21.6029H19.7961C20.2734 21.6029 20.7311 21.4133 21.0686 21.0758C21.4061 20.7383 21.5957 20.2805 21.5957 19.8032C21.5957 19.3259 21.4061 18.8682 21.0686 18.5307C20.7311 18.1932 20.2734 18.0036 19.7961 18.0036Z" fill="#FDFDFD"/>
</svg>
