<svg width="25" height="28" viewBox="0 0 25 28" fill="none" xmlns="http://www.w3.org/2000/svg">
<path d="M9.72222 22.4C10.0906 22.4 10.4438 22.2525 10.7043 21.99C10.9648 21.7274 11.1111 21.3713 11.1111 21V12.6C11.1111 12.2287 10.9648 11.8726 10.7043 11.6101C10.4438 11.3475 10.0906 11.2 9.72222 11.2C9.35387 11.2 9.0006 11.3475 8.74013 11.6101C8.47966 11.8726 8.33333 12.2287 8.33333 12.6V21C8.33333 21.3713 8.47966 21.7274 8.74013 21.99C9.0006 22.2525 9.35387 22.4 9.72222 22.4ZM23.6111 5.6H18.0556V4.2C18.0556 3.08609 17.6166 2.0178 16.8352 1.23015C16.0538 0.442499 14.994 0 13.8889 0H11.1111C10.006 0 8.94623 0.442499 8.16483 1.23015C7.38343 2.0178 6.94444 3.08609 6.94444 4.2V5.6H1.38889C1.02053 5.6 0.667263 5.7475 0.406796 6.01005C0.146329 6.2726 0 6.6287 0 7C0 7.3713 0.146329 7.7274 0.406796 7.98995C0.667263 8.2525 1.02053 8.4 1.38889 8.4H2.77778V23.8C2.77778 24.9139 3.21676 25.9822 3.99817 26.7698C4.77957 27.5575 5.83938 28 6.94444 28H18.0556C19.1606 28 20.2204 27.5575 21.0018 26.7698C21.7832 25.9822 22.2222 24.9139 22.2222 23.8V8.4H23.6111C23.9795 8.4 24.3327 8.2525 24.5932 7.98995C24.8537 7.7274 25 7.3713 25 7C25 6.6287 24.8537 6.2726 24.5932 6.01005C24.3327 5.7475 23.9795 5.6 23.6111 5.6ZM9.72222 4.2C9.72222 3.8287 9.86855 3.4726 10.129 3.21005C10.3895 2.9475 10.7428 2.8 11.1111 2.8H13.8889C14.2572 2.8 14.6105 2.9475 14.871 3.21005C15.1314 3.4726 15.2778 3.8287 15.2778 4.2V5.6H9.72222V4.2ZM19.4444 23.8C19.4444 24.1713 19.2981 24.5274 19.0377 24.7899C18.7772 25.0525 18.4239 25.2 18.0556 25.2H6.94444C6.57609 25.2 6.22282 25.0525 5.96235 24.7899C5.70189 24.5274 5.55556 24.1713 5.55556 23.8V8.4H19.4444V23.8ZM15.2778 22.4C15.6461 22.4 15.9994 22.2525 16.2599 21.99C16.5203 21.7274 16.6667 21.3713 16.6667 21V12.6C16.6667 12.2287 16.5203 11.8726 16.2599 11.6101C15.9994 11.3475 15.6461 11.2 15.2778 11.2C14.9094 11.2 14.5562 11.3475 14.2957 11.6101C14.0352 11.8726 13.8889 12.2287 13.8889 12.6V21C13.8889 21.3713 14.0352 21.7274 14.2957 21.99C14.5562 22.2525 14.9094 22.4 15.2778 22.4Z" fill="#FDFDFD"/>
</svg>
