<svg width="26" height="26" viewBox="0 0 26 26" fill="none" xmlns="http://www.w3.org/2000/svg">
<path d="M24.6928 13.0038C24.3482 13.0038 24.0176 13.1407 23.7739 13.3844C23.5301 13.6281 23.3932 13.9587 23.3932 14.3034V22.1011C23.3932 22.4458 23.2563 22.7764 23.0126 23.0201C22.7688 23.2638 22.4383 23.4008 22.0936 23.4008H3.89887C3.55419 23.4008 3.22362 23.2638 2.9799 23.0201C2.73617 22.7764 2.59925 22.4458 2.59925 22.1011V3.90641C2.59925 3.56172 2.73617 3.23116 2.9799 2.98743C3.22362 2.74371 3.55419 2.60678 3.89887 2.60678H11.6966C12.0413 2.60678 12.3719 2.46986 12.6156 2.22613C12.8593 1.9824 12.9962 1.65184 12.9962 1.30716C12.9962 0.962477 12.8593 0.631913 12.6156 0.388186C12.3719 0.14446 12.0413 0.00753566 11.6966 0.00753566H3.89887C2.86483 0.00753566 1.87313 0.418308 1.14195 1.14949C0.410773 1.88067 0 2.87236 0 3.90641V22.1011C0 23.1352 0.410773 24.1269 1.14195 24.858C1.87313 25.5892 2.86483 26 3.89887 26H22.0936C23.1276 26 24.1193 25.5892 24.8505 24.858C25.5817 24.1269 25.9925 23.1352 25.9925 22.1011V14.3034C25.9925 13.9587 25.8555 13.6281 25.6118 13.3844C25.3681 13.1407 25.0375 13.0038 24.6928 13.0038ZM5.19849 13.9915V19.5019C5.19849 19.8466 5.33542 20.1771 5.57914 20.4209C5.82287 20.6646 6.15343 20.8015 6.49812 20.8015H12.0085C12.1796 20.8025 12.3491 20.7697 12.5075 20.705C12.6658 20.6404 12.8098 20.5451 12.9313 20.4246L21.9246 11.4182L25.6156 7.80528C25.7374 7.68446 25.8341 7.54072 25.9001 7.38235C25.966 7.22398 26 7.05411 26 6.88254C26 6.71098 25.966 6.54111 25.9001 6.38274C25.8341 6.22437 25.7374 6.08063 25.6156 5.95981L20.1052 0.384426C19.9844 0.262615 19.8406 0.16593 19.6822 0.09995C19.5239 0.0339699 19.354 0 19.1824 0C19.0109 0 18.841 0.0339699 18.6826 0.09995C18.5243 0.16593 18.3805 0.262615 18.2597 0.384426L14.5948 4.06236L5.57538 13.0687C5.45493 13.1902 5.35964 13.3342 5.29496 13.4925C5.23029 13.6509 5.1975 13.8204 5.19849 13.9915ZM19.1824 3.13963L22.8604 6.81756L21.0149 8.66303L17.337 4.98509L19.1824 3.13963ZM7.79774 14.5243L15.5045 6.81756L19.1824 10.4955L11.4757 18.2023H7.79774V14.5243Z" fill="#FDFDFD"/>
</svg>
